<?xml version="1.0" encoding="UTF-8"?>
<svg xmlns="http://www.w3.org/2000/svg" xmlns:xlink="http://www.w3.org/1999/xlink" width="500pt" height="500pt" viewBox="0 0 500 500" version="1.1">
<g id="surface7695">
<path style="fill-rule:evenodd;fill:rgb(100%,100%,100%);fill-opacity:1;stroke-width:1;stroke-linecap:round;stroke-linejoin:miter;stroke:rgb(74.509804%,74.509804%,74.509804%);stroke-opacity:1;stroke-miterlimit:10;" d="M 54 57 L 103.363281 85.5 L 103.363281 28.5 L 54 0 Z M 54 57 L 4.636719 85.5 L 54 114 L 103.363281 85.5 Z M 54 57 L 54 0 L 4.636719 28.5 L 4.636719 85.5 "/>
<path style="fill-rule:evenodd;fill:rgb(100%,100%,100%);fill-opacity:1;stroke-width:1;stroke-linecap:round;stroke-linejoin:miter;stroke:rgb(74.509804%,74.509804%,74.509804%);stroke-opacity:1;stroke-miterlimit:10;" d="M 54 57 L 54 89 L 81.710938 73 L 81.710938 41 Z M 54 57 L 26.289062 41 L 26.289062 73 L 54 89 Z M 54 57 L 81.710938 41 L 54 25 L 26.289062 41 "/>
<path style="fill-rule:evenodd;fill:rgb(100%,100%,100%);fill-opacity:1;stroke-width:1;stroke-linecap:round;stroke-linejoin:miter;stroke:rgb(74.509804%,74.509804%,74.509804%);stroke-opacity:1;stroke-miterlimit:10;" d="M 54 57 L 69.589844 66 L 69.589844 48 L 54 39 Z M 54 57 L 38.410156 66 L 54 75 L 69.589844 66 Z M 54 57 L 54 39 L 38.410156 48 L 38.410156 66 "/>
<path style="fill-rule:evenodd;fill:rgb(100%,100%,100%);fill-opacity:1;stroke-width:1;stroke-linecap:round;stroke-linejoin:miter;stroke:rgb(74.509804%,74.509804%,74.509804%);stroke-opacity:1;stroke-miterlimit:10;" d="M 54 57 L 54 67 L 62.660156 62 L 62.660156 52 Z M 54 57 L 45.339844 52 L 45.339844 62 L 54 67 Z M 54 57 L 62.660156 52 L 54 47 L 45.339844 52 "/>
<path style="fill-rule:evenodd;fill:rgb(100%,100%,100%);fill-opacity:1;stroke-width:1;stroke-linecap:round;stroke-linejoin:miter;stroke:rgb(74.509804%,74.509804%,74.509804%);stroke-opacity:1;stroke-miterlimit:10;" d="M 152.726562 57 L 152.726562 114 L 202.089844 85.5 L 202.089844 28.5 Z M 152.726562 57 L 103.363281 28.5 L 103.363281 85.5 L 152.726562 114 Z M 152.726562 57 L 202.089844 28.5 L 152.726562 0 L 103.363281 28.5 "/>
<path style="fill-rule:evenodd;fill:rgb(100%,100%,100%);fill-opacity:1;stroke-width:1;stroke-linecap:round;stroke-linejoin:miter;stroke:rgb(74.509804%,74.509804%,74.509804%);stroke-opacity:1;stroke-miterlimit:10;" d="M 152.726562 57 L 184.769531 75.5 L 184.769531 38.5 L 152.726562 20 Z M 152.726562 57 L 120.683594 75.5 L 152.726562 94 L 184.769531 75.5 Z M 152.726562 57 L 152.726562 20 L 120.683594 38.5 L 120.683594 75.5 "/>
<path style="fill-rule:evenodd;fill:rgb(100%,100%,100%);fill-opacity:1;stroke-width:1;stroke-linecap:round;stroke-linejoin:miter;stroke:rgb(74.509804%,74.509804%,74.509804%);stroke-opacity:1;stroke-miterlimit:10;" d="M 152.726562 57 L 152.726562 81 L 173.511719 69 L 173.511719 45 Z M 152.726562 57 L 131.941406 45 L 131.941406 69 L 152.726562 81 Z M 152.726562 57 L 173.511719 45 L 152.726562 33 L 131.941406 45 "/>
<path style="fill-rule:evenodd;fill:rgb(100%,100%,100%);fill-opacity:1;stroke-width:1;stroke-linecap:round;stroke-linejoin:miter;stroke:rgb(74.509804%,74.509804%,74.509804%);stroke-opacity:1;stroke-miterlimit:10;" d="M 152.726562 57 L 164.851562 64 L 164.851562 50 L 152.726562 43 Z M 152.726562 57 L 140.601562 64 L 152.726562 71 L 164.851562 64 Z M 152.726562 57 L 152.726562 43 L 140.601562 50 L 140.601562 64 "/>
<path style="fill-rule:evenodd;fill:rgb(100%,100%,100%);fill-opacity:1;stroke-width:1;stroke-linecap:round;stroke-linejoin:miter;stroke:rgb(74.509804%,74.509804%,74.509804%);stroke-opacity:1;stroke-miterlimit:10;" d="M 251.453125 57 L 300.816406 85.5 L 300.816406 28.5 L 251.453125 0 Z M 251.453125 57 L 202.089844 85.5 L 251.453125 114 L 300.816406 85.5 Z M 251.453125 57 L 251.453125 0 L 202.089844 28.5 L 202.089844 85.5 "/>
<path style="fill-rule:evenodd;fill:rgb(100%,100%,100%);fill-opacity:1;stroke-width:1;stroke-linecap:round;stroke-linejoin:miter;stroke:rgb(74.509804%,74.509804%,74.509804%);stroke-opacity:1;stroke-miterlimit:10;" d="M 251.453125 57 L 251.453125 103 L 291.289062 80 L 291.289062 34 Z M 251.453125 57 L 211.617188 34 L 211.617188 80 L 251.453125 103 Z M 251.453125 57 L 291.289062 34 L 251.453125 11 L 211.617188 34 "/>
<path style="fill-rule:evenodd;fill:rgb(100%,100%,100%);fill-opacity:1;stroke-width:1;stroke-linecap:round;stroke-linejoin:miter;stroke:rgb(74.509804%,74.509804%,74.509804%);stroke-opacity:1;stroke-miterlimit:10;" d="M 251.453125 57 L 276.570312 71.5 L 276.570312 42.5 L 251.453125 28 Z M 251.453125 57 L 226.339844 71.5 L 251.453125 86 L 276.570312 71.5 Z M 251.453125 57 L 251.453125 28 L 226.339844 42.5 L 226.339844 71.5 "/>
<path style="fill-rule:evenodd;fill:rgb(100%,100%,100%);fill-opacity:1;stroke-width:1;stroke-linecap:round;stroke-linejoin:miter;stroke:rgb(74.509804%,74.509804%,74.509804%);stroke-opacity:1;stroke-miterlimit:10;" d="M 350.179688 57 L 399.542969 85.5 L 399.542969 28.5 L 350.179688 0 Z M 350.179688 57 L 300.816406 85.5 L 350.179688 114 L 399.542969 85.5 Z M 350.179688 57 L 350.179688 0 L 300.816406 28.5 L 300.816406 85.5 "/>
<path style="fill-rule:evenodd;fill:rgb(100%,100%,100%);fill-opacity:1;stroke-width:1;stroke-linecap:round;stroke-linejoin:miter;stroke:rgb(74.509804%,74.509804%,74.509804%);stroke-opacity:1;stroke-miterlimit:10;" d="M 350.179688 57 L 350.179688 90 L 378.757812 73.5 L 378.757812 40.5 Z M 350.179688 57 L 321.601562 40.5 L 321.601562 73.5 L 350.179688 90 Z M 350.179688 57 L 378.757812 40.5 L 350.179688 24 L 321.601562 40.5 "/>
<path style="fill-rule:evenodd;fill:rgb(100%,100%,100%);fill-opacity:1;stroke-width:1;stroke-linecap:round;stroke-linejoin:miter;stroke:rgb(74.509804%,74.509804%,74.509804%);stroke-opacity:1;stroke-miterlimit:10;" d="M 350.179688 57 L 368.367188 67.5 L 368.367188 46.5 L 350.179688 36 Z M 350.179688 57 L 331.996094 67.5 L 350.179688 78 L 368.367188 67.5 Z M 350.179688 57 L 350.179688 36 L 331.996094 46.5 L 331.996094 67.5 "/>
<path style="fill-rule:evenodd;fill:rgb(100%,100%,100%);fill-opacity:1;stroke-width:1;stroke-linecap:round;stroke-linejoin:miter;stroke:rgb(74.509804%,74.509804%,74.509804%);stroke-opacity:1;stroke-miterlimit:10;" d="M 350.179688 57 L 350.179688 68 L 359.707031 62.5 L 359.707031 51.5 Z M 350.179688 57 L 340.65625 51.5 L 340.65625 62.5 L 350.179688 68 Z M 350.179688 57 L 359.707031 51.5 L 350.179688 46 L 340.65625 51.5 "/>
<path style="fill-rule:evenodd;fill:rgb(100%,100%,100%);fill-opacity:1;stroke-width:1;stroke-linecap:round;stroke-linejoin:miter;stroke:rgb(74.509804%,74.509804%,74.509804%);stroke-opacity:1;stroke-miterlimit:10;" d="M 350.179688 57 L 358.839844 62 L 358.839844 52 L 350.179688 47 Z M 350.179688 57 L 341.519531 62 L 350.179688 67 L 358.839844 62 Z M 350.179688 57 L 350.179688 47 L 341.519531 52 L 341.519531 62 "/>
<path style="fill-rule:evenodd;fill:rgb(100%,100%,100%);fill-opacity:1;stroke-width:1;stroke-linecap:round;stroke-linejoin:miter;stroke:rgb(74.509804%,74.509804%,74.509804%);stroke-opacity:1;stroke-miterlimit:10;" d="M 448.90625 57 L 498.269531 85.5 L 498.269531 28.5 L 448.90625 0 Z M 448.90625 57 L 399.542969 85.5 L 448.90625 114 L 498.269531 85.5 Z M 448.90625 57 L 448.90625 0 L 399.542969 28.5 L 399.542969 85.5 "/>
<path style="fill-rule:evenodd;fill:rgb(100%,100%,100%);fill-opacity:1;stroke-width:1;stroke-linecap:round;stroke-linejoin:miter;stroke:rgb(74.509804%,74.509804%,74.509804%);stroke-opacity:1;stroke-miterlimit:10;" d="M 448.90625 57 L 448.90625 89 L 476.621094 73 L 476.621094 41 Z M 448.90625 57 L 421.195312 41 L 421.195312 73 L 448.90625 89 Z M 448.90625 57 L 476.621094 41 L 448.90625 25 L 421.195312 41 "/>
<path style="fill-rule:evenodd;fill:rgb(100%,100%,100%);fill-opacity:1;stroke-width:1;stroke-linecap:round;stroke-linejoin:miter;stroke:rgb(74.509804%,74.509804%,74.509804%);stroke-opacity:1;stroke-miterlimit:10;" d="M 448.90625 57 L 464.496094 66 L 464.496094 48 L 448.90625 39 Z M 448.90625 57 L 433.320312 66 L 448.90625 75 L 464.496094 66 Z M 448.90625 57 L 448.90625 39 L 433.320312 48 L 433.320312 66 "/>
<path style="fill-rule:evenodd;fill:rgb(100%,100%,100%);fill-opacity:1;stroke-width:1;stroke-linecap:round;stroke-linejoin:miter;stroke:rgb(74.509804%,74.509804%,74.509804%);stroke-opacity:1;stroke-miterlimit:10;" d="M 448.90625 57 L 448.90625 67 L 457.566406 62 L 457.566406 52 Z M 448.90625 57 L 440.246094 52 L 440.246094 62 L 448.90625 67 Z M 448.90625 57 L 457.566406 52 L 448.90625 47 L 440.246094 52 "/>
<path style="fill-rule:evenodd;fill:rgb(100%,100%,100%);fill-opacity:1;stroke-width:1;stroke-linecap:round;stroke-linejoin:miter;stroke:rgb(74.509804%,74.509804%,74.509804%);stroke-opacity:1;stroke-miterlimit:10;" d="M 103.363281 142.5 L 103.363281 199.5 L 152.726562 171 L 152.726562 114 Z M 103.363281 142.5 L 54 114 L 54 171 L 103.363281 199.5 Z M 103.363281 142.5 L 152.726562 114 L 103.363281 85.5 L 54 114 "/>
<path style="fill-rule:evenodd;fill:rgb(100%,100%,100%);fill-opacity:1;stroke-width:1;stroke-linecap:round;stroke-linejoin:miter;stroke:rgb(74.509804%,74.509804%,74.509804%);stroke-opacity:1;stroke-miterlimit:10;" d="M 103.363281 142.5 L 132.808594 159.5 L 132.808594 125.5 L 103.363281 108.5 Z M 103.363281 142.5 L 73.917969 159.5 L 103.363281 176.5 L 132.808594 159.5 Z M 103.363281 142.5 L 103.363281 108.5 L 73.917969 125.5 L 73.917969 159.5 "/>
<path style="fill-rule:evenodd;fill:rgb(100%,100%,100%);fill-opacity:1;stroke-width:1;stroke-linecap:round;stroke-linejoin:miter;stroke:rgb(74.509804%,74.509804%,74.509804%);stroke-opacity:1;stroke-miterlimit:10;" d="M 103.363281 142.5 L 103.363281 165.5 L 123.28125 154 L 123.28125 131 Z M 103.363281 142.5 L 83.445312 131 L 83.445312 154 L 103.363281 165.5 Z M 103.363281 142.5 L 123.28125 131 L 103.363281 119.5 L 83.445312 131 "/>
<path style="fill-rule:evenodd;fill:rgb(100%,100%,100%);fill-opacity:1;stroke-width:1;stroke-linecap:round;stroke-linejoin:miter;stroke:rgb(74.509804%,74.509804%,74.509804%);stroke-opacity:1;stroke-miterlimit:10;" d="M 103.363281 142.5 L 114.621094 149 L 114.621094 136 L 103.363281 129.5 Z M 103.363281 142.5 L 92.105469 149 L 103.363281 155.5 L 114.621094 149 Z M 103.363281 142.5 L 103.363281 129.5 L 92.105469 136 L 92.105469 149 "/>
<path style="fill-rule:evenodd;fill:rgb(100%,100%,100%);fill-opacity:1;stroke-width:1;stroke-linecap:round;stroke-linejoin:miter;stroke:rgb(74.509804%,74.509804%,74.509804%);stroke-opacity:1;stroke-miterlimit:10;" d="M 103.363281 142.5 L 103.363281 152.5 L 112.023438 147.5 L 112.023438 137.5 Z M 103.363281 142.5 L 94.703125 137.5 L 94.703125 147.5 L 103.363281 152.5 Z M 103.363281 142.5 L 112.023438 137.5 L 103.363281 132.5 L 94.703125 137.5 "/>
<path style="fill-rule:evenodd;fill:rgb(100%,100%,100%);fill-opacity:1;stroke-width:1;stroke-linecap:round;stroke-linejoin:miter;stroke:rgb(74.509804%,74.509804%,74.509804%);stroke-opacity:1;stroke-miterlimit:10;" d="M 202.089844 142.5 L 202.089844 199.5 L 251.453125 171 L 251.453125 114 Z M 202.089844 142.5 L 152.726562 114 L 152.726562 171 L 202.089844 199.5 Z M 202.089844 142.5 L 251.453125 114 L 202.089844 85.5 L 152.726562 114 "/>
<path style="fill-rule:evenodd;fill:rgb(100%,100%,100%);fill-opacity:1;stroke-width:1;stroke-linecap:round;stroke-linejoin:miter;stroke:rgb(74.509804%,74.509804%,74.509804%);stroke-opacity:1;stroke-miterlimit:10;" d="M 202.089844 142.5 L 234.132812 161 L 234.132812 124 L 202.089844 105.5 Z M 202.089844 142.5 L 170.046875 161 L 202.089844 179.5 L 234.132812 161 Z M 202.089844 142.5 L 202.089844 105.5 L 170.046875 124 L 170.046875 161 "/>
<path style="fill-rule:evenodd;fill:rgb(100%,100%,100%);fill-opacity:1;stroke-width:1;stroke-linecap:round;stroke-linejoin:miter;stroke:rgb(74.509804%,74.509804%,74.509804%);stroke-opacity:1;stroke-miterlimit:10;" d="M 202.089844 142.5 L 202.089844 168.5 L 224.605469 155.5 L 224.605469 129.5 Z M 202.089844 142.5 L 179.574219 129.5 L 179.574219 155.5 L 202.089844 168.5 Z M 202.089844 142.5 L 224.605469 129.5 L 202.089844 116.5 L 179.574219 129.5 "/>
<path style="fill-rule:evenodd;fill:rgb(100%,100%,100%);fill-opacity:1;stroke-width:1;stroke-linecap:round;stroke-linejoin:miter;stroke:rgb(74.509804%,74.509804%,74.509804%);stroke-opacity:1;stroke-miterlimit:10;" d="M 300.816406 142.5 L 350.179688 171 L 350.179688 114 L 300.816406 85.5 Z M 300.816406 142.5 L 251.453125 171 L 300.816406 199.5 L 350.179688 171 Z M 300.816406 142.5 L 300.816406 85.5 L 251.453125 114 L 251.453125 171 "/>
<path style="fill-rule:evenodd;fill:rgb(100%,100%,100%);fill-opacity:1;stroke-width:1;stroke-linecap:round;stroke-linejoin:miter;stroke:rgb(74.509804%,74.509804%,74.509804%);stroke-opacity:1;stroke-miterlimit:10;" d="M 300.816406 142.5 L 300.816406 174.5 L 328.53125 158.5 L 328.53125 126.5 Z M 300.816406 142.5 L 273.105469 126.5 L 273.105469 158.5 L 300.816406 174.5 Z M 300.816406 142.5 L 328.53125 126.5 L 300.816406 110.5 L 273.105469 126.5 "/>
<path style="fill-rule:evenodd;fill:rgb(100%,100%,100%);fill-opacity:1;stroke-width:1;stroke-linecap:round;stroke-linejoin:miter;stroke:rgb(74.509804%,74.509804%,74.509804%);stroke-opacity:1;stroke-miterlimit:10;" d="M 300.816406 142.5 L 316.40625 151.5 L 316.40625 133.5 L 300.816406 124.5 Z M 300.816406 142.5 L 285.230469 151.5 L 300.816406 160.5 L 316.40625 151.5 Z M 300.816406 142.5 L 300.816406 124.5 L 285.230469 133.5 L 285.230469 151.5 "/>
<path style="fill-rule:evenodd;fill:rgb(100%,100%,100%);fill-opacity:1;stroke-width:1;stroke-linecap:round;stroke-linejoin:miter;stroke:rgb(74.509804%,74.509804%,74.509804%);stroke-opacity:1;stroke-miterlimit:10;" d="M 300.816406 142.5 L 300.816406 152.5 L 309.476562 147.5 L 309.476562 137.5 Z M 300.816406 142.5 L 292.15625 137.5 L 292.15625 147.5 L 300.816406 152.5 Z M 300.816406 142.5 L 309.476562 137.5 L 300.816406 132.5 L 292.15625 137.5 "/>
<path style="fill-rule:evenodd;fill:rgb(100%,100%,100%);fill-opacity:1;stroke-width:1;stroke-linecap:round;stroke-linejoin:miter;stroke:rgb(74.509804%,74.509804%,74.509804%);stroke-opacity:1;stroke-miterlimit:10;" d="M 399.542969 142.5 L 399.542969 199.5 L 448.90625 171 L 448.90625 114 Z M 399.542969 142.5 L 350.179688 114 L 350.179688 171 L 399.542969 199.5 Z M 399.542969 142.5 L 448.90625 114 L 399.542969 85.5 L 350.179688 114 "/>
<path style="fill-rule:evenodd;fill:rgb(100%,100%,100%);fill-opacity:1;stroke-width:1;stroke-linecap:round;stroke-linejoin:miter;stroke:rgb(74.509804%,74.509804%,74.509804%);stroke-opacity:1;stroke-miterlimit:10;" d="M 399.542969 142.5 L 432.453125 161.5 L 432.453125 123.5 L 399.542969 104.5 Z M 399.542969 142.5 L 366.636719 161.5 L 399.542969 180.5 L 432.453125 161.5 Z M 399.542969 142.5 L 399.542969 104.5 L 366.636719 123.5 L 366.636719 161.5 "/>
<path style="fill-rule:evenodd;fill:rgb(100%,100%,100%);fill-opacity:1;stroke-width:1;stroke-linecap:round;stroke-linejoin:miter;stroke:rgb(74.509804%,74.509804%,74.509804%);stroke-opacity:1;stroke-miterlimit:10;" d="M 399.542969 142.5 L 399.542969 165.5 L 419.460938 154 L 419.460938 131 Z M 399.542969 142.5 L 379.625 131 L 379.625 154 L 399.542969 165.5 Z M 399.542969 142.5 L 419.460938 131 L 399.542969 119.5 L 379.625 131 "/>
<path style="fill-rule:evenodd;fill:rgb(100%,100%,100%);fill-opacity:1;stroke-width:1;stroke-linecap:round;stroke-linejoin:miter;stroke:rgb(74.509804%,74.509804%,74.509804%);stroke-opacity:1;stroke-miterlimit:10;" d="M 152.726562 228 L 152.726562 285 L 202.089844 256.5 L 202.089844 199.5 Z M 152.726562 228 L 103.363281 199.5 L 103.363281 256.5 L 152.726562 285 Z M 152.726562 228 L 202.089844 199.5 L 152.726562 171 L 103.363281 199.5 "/>
<path style="fill-rule:evenodd;fill:rgb(100%,100%,100%);fill-opacity:1;stroke-width:1;stroke-linecap:round;stroke-linejoin:miter;stroke:rgb(74.509804%,74.509804%,74.509804%);stroke-opacity:1;stroke-miterlimit:10;" d="M 152.726562 228 L 183.039062 245.5 L 183.039062 210.5 L 152.726562 193 Z M 152.726562 228 L 122.414062 245.5 L 152.726562 263 L 183.039062 245.5 Z M 152.726562 228 L 152.726562 193 L 122.414062 210.5 L 122.414062 245.5 "/>
<path style="fill-rule:evenodd;fill:rgb(100%,100%,100%);fill-opacity:1;stroke-width:1;stroke-linecap:round;stroke-linejoin:miter;stroke:rgb(74.509804%,74.509804%,74.509804%);stroke-opacity:1;stroke-miterlimit:10;" d="M 152.726562 228 L 152.726562 252 L 173.511719 240 L 173.511719 216 Z M 152.726562 228 L 131.941406 216 L 131.941406 240 L 152.726562 252 Z M 152.726562 228 L 173.511719 216 L 152.726562 204 L 131.941406 216 "/>
<path style="fill-rule:evenodd;fill:rgb(100%,100%,100%);fill-opacity:1;stroke-width:1;stroke-linecap:round;stroke-linejoin:miter;stroke:rgb(74.509804%,74.509804%,74.509804%);stroke-opacity:1;stroke-miterlimit:10;" d="M 152.726562 228 L 163.984375 234.5 L 163.984375 221.5 L 152.726562 215 Z M 152.726562 228 L 141.46875 234.5 L 152.726562 241 L 163.984375 234.5 Z M 152.726562 228 L 152.726562 215 L 141.46875 221.5 L 141.46875 234.5 "/>
<path style="fill-rule:evenodd;fill:rgb(100%,100%,100%);fill-opacity:1;stroke-width:1;stroke-linecap:round;stroke-linejoin:miter;stroke:rgb(74.509804%,74.509804%,74.509804%);stroke-opacity:1;stroke-miterlimit:10;" d="M 152.726562 228 L 152.726562 238 L 161.386719 233 L 161.386719 223 Z M 152.726562 228 L 144.066406 223 L 144.066406 233 L 152.726562 238 Z M 152.726562 228 L 161.386719 223 L 152.726562 218 L 144.066406 223 "/>
<path style="fill-rule:evenodd;fill:rgb(100%,100%,100%);fill-opacity:1;stroke-width:1;stroke-linecap:round;stroke-linejoin:miter;stroke:rgb(74.509804%,74.509804%,74.509804%);stroke-opacity:1;stroke-miterlimit:10;" d="M 251.453125 228 L 300.816406 256.5 L 300.816406 199.5 L 251.453125 171 Z M 251.453125 228 L 202.089844 256.5 L 251.453125 285 L 300.816406 256.5 Z M 251.453125 228 L 251.453125 171 L 202.089844 199.5 L 202.089844 256.5 "/>
<path style="fill-rule:evenodd;fill:rgb(100%,100%,100%);fill-opacity:1;stroke-width:1;stroke-linecap:round;stroke-linejoin:miter;stroke:rgb(74.509804%,74.509804%,74.509804%);stroke-opacity:1;stroke-miterlimit:10;" d="M 251.453125 228 L 251.453125 265 L 283.496094 246.5 L 283.496094 209.5 Z M 251.453125 228 L 219.410156 209.5 L 219.410156 246.5 L 251.453125 265 Z M 251.453125 228 L 283.496094 209.5 L 251.453125 191 L 219.410156 209.5 "/>
<path style="fill-rule:evenodd;fill:rgb(100%,100%,100%);fill-opacity:1;stroke-width:1;stroke-linecap:round;stroke-linejoin:miter;stroke:rgb(74.509804%,74.509804%,74.509804%);stroke-opacity:1;stroke-miterlimit:10;" d="M 251.453125 228 L 273.96875 241 L 273.96875 215 L 251.453125 202 Z M 251.453125 228 L 228.9375 241 L 251.453125 254 L 273.96875 241 Z M 251.453125 228 L 251.453125 202 L 228.9375 215 L 228.9375 241 "/>
<path style="fill-rule:evenodd;fill:rgb(100%,100%,100%);fill-opacity:1;stroke-width:1;stroke-linecap:round;stroke-linejoin:miter;stroke:rgb(74.509804%,74.509804%,74.509804%);stroke-opacity:1;stroke-miterlimit:10;" d="M 350.179688 228 L 350.179688 285 L 399.542969 256.5 L 399.542969 199.5 Z M 350.179688 228 L 300.816406 199.5 L 300.816406 256.5 L 350.179688 285 Z M 350.179688 228 L 399.542969 199.5 L 350.179688 171 L 300.816406 199.5 "/>
<path style="fill-rule:evenodd;fill:rgb(100%,100%,100%);fill-opacity:1;stroke-width:1;stroke-linecap:round;stroke-linejoin:miter;stroke:rgb(74.509804%,74.509804%,74.509804%);stroke-opacity:1;stroke-miterlimit:10;" d="M 350.179688 228 L 384.820312 248 L 384.820312 208 L 350.179688 188 Z M 350.179688 228 L 315.539062 248 L 350.179688 268 L 384.820312 248 Z M 350.179688 228 L 350.179688 188 L 315.539062 208 L 315.539062 248 "/>
<path style="fill-rule:evenodd;fill:rgb(100%,100%,100%);fill-opacity:1;stroke-width:1;stroke-linecap:round;stroke-linejoin:miter;stroke:rgb(74.509804%,74.509804%,74.509804%);stroke-opacity:1;stroke-miterlimit:10;" d="M 350.179688 228 L 350.179688 258 L 376.160156 243 L 376.160156 213 Z M 350.179688 228 L 324.199219 213 L 324.199219 243 L 350.179688 258 Z M 350.179688 228 L 376.160156 213 L 350.179688 198 L 324.199219 213 "/>
</g>
</svg>
