<?xml version="1.0" encoding="utf-8"?>
<!-- Generator: Adobe Illustrator 15.1.0, SVG Export Plug-In . SVG Version: 6.00 Build 0)  -->
<!DOCTYPE svg PUBLIC "-//W3C//DTD SVG 1.1//EN" "http://www.w3.org/Graphics/SVG/1.1/DTD/svg11.dtd">
<svg version="1.1" id="Layer_1" xmlns="http://www.w3.org/2000/svg" xmlns:xlink="http://www.w3.org/1999/xlink" x="0px" y="0px"
	 width="511.875px" height="511.824px" viewBox="0 0 511.875 511.824" enable-background="new 0 0 511.875 511.824"
	 xml:space="preserve">
<g id="Layer_2">
	<path id="path3774" fill="#9F1D20" d="M195.284,7.35C84.36,35.32,2.723,130.42,0.057,256.107
		c-1.414,66.652,23.254,149.635,110.75,215.375c51.369,26.547,96.042,43.189,145.062,39.938
		c52.376,1.752,115.908-13.203,174.688-67.883c-61.748-101.289-66.096-99.068-149.154-261.304l-0.375,0.594
		C233.71,82.047,234.477,81.886,195.284,7.35z"/>
	<path id="path3615" fill="#3E5BA9" d="M429.645,443.429c56.342-51.016,84.867-126.551,82.039-187.338v-0.531
		C512.814,120.792,391.719-30.445,196.05,5.326c36.106,73.367,39.045,76.604,84.798,175.999
		C335.057,298.074,375.504,369.779,429.645,443.429z"/>
</g>
<g id="Layer_4">
	<g>
		<path fill="#FFFFFF" d="M82.573,453.794c14.995-56.41,124.959-256.344,167.087-290.618
			c-13.566-39.987-46.413-118.533-66.406-118.533c-18.565,0-22.85,26.42-43.557,26.42c-14.995,0-27.848-11.425-27.848-29.99
			c0-32.132,34.274-52.126,74.976-52.126c44.271,0,73.407,24.697,99.112,78.965c43.559,92.826,88.242,201.671,128.67,323.046
			c2.854,12.139,24.274,18.564,38.559,16.424c18.565-2.855,14.995,49.982,0,49.982l-80.688,7.141
			c-14.279,0-24.99-4.998-32.134-29.99c-21.421-75.688-53.554-170.657-69.263-205.646h-5.712
			c-24.278,24.276-81.402,152.808-93.541,224.925C167.545,476.644,79.002,468.076,82.573,453.794z"/>
	</g>
</g>
<rect x="55.281" y="-40.622" fill="#FFFFFF" width="199.5" height="73.623"/>
<rect x="248.818" y="195.989" fill="#FFFFFF" width="57.373" height="45.211"/>
<rect x="67.438" y="7.35" fill="#FFFFFF" width="60.774" height="43.651"/>
<rect x="187.438" y="-19.65" fill="#FFFFFF" width="60.774" height="43.651"/>
<rect x="56.438" y="430.69" fill="#FFFFFF" width="80" height="57.722"/>
<rect x="387.438" y="398.412" fill="#FFFFFF" width="107" height="90"/>
</svg>
