<?xml version="1.0" encoding="utf-8"?>
<!DOCTYPE svg PUBLIC "-//W3C//DTD SVG 1.1//EN" "http://www.w3.org/Graphics/SVG/1.1/DTD/svg11.dtd">
<svg version="1.1" xmlns="http://www.w3.org/2000/svg" xmlns:xlink="http://www.w3.org/1999/xlink" x="0px" y="0px"
	 width="511.875px" height="511.823px" viewBox="52.631 67.769 511.875 511.823"
	 enable-background="new 52.631 67.769 511.875 511.823" xml:space="preserve">
<g id="Layer_2">
	<path id="path3774"  fill="#9F1D20" d="M247.915,75.117
		C136.991,103.088,55.354,198.188,52.688,323.875c-1.414,66.652,23.254,149.634,110.75,215.375
		c51.369,26.547,96.042,43.191,145.062,39.938c52.376,1.751,115.908-13.205,174.688-67.883
		c-61.749-101.29-66.096-99.07-149.156-261.305l-0.375,0.594C286.341,149.815,287.107,149.654,247.915,75.117z"/>
	
		<path id="path3615" fill="#3E5BA9" d="
		M482.275,511.196c56.34-51.014,84.868-126.55,82.039-187.337v-0.531c1.131-134.768-119.964-286.006-315.633-250.234
		c36.106,73.367,39.046,76.603,84.798,175.999C387.688,365.842,428.135,437.546,482.275,511.196z"/>
</g>
<g id="Layer_4">
	<g>
		<path fill="#FFFFFF" d="M135.204,535.562c14.995-56.41,124.959-256.344,167.087-290.618
			c-13.566-39.987-46.413-118.533-66.406-118.533c-18.565,0-22.85,26.42-43.557,26.42c-14.995,0-27.848-11.425-27.848-29.99
			c0-32.132,34.274-52.126,74.976-52.126c44.271,0,77.831,22.85,103.537,77.118c43.558,92.826,89.971,202.791,124.245,324.893
			c2.856,12.139,24.277,18.565,38.559,16.423c18.565-2.856,14.995,49.983,0,49.983l-80.688,7.141
			c-14.281,0-24.992-4.998-32.133-29.99c-21.421-75.689-53.554-170.658-69.263-205.646h-5.712
			c-24.278,24.277-81.402,152.807-93.541,224.926C220.176,558.411,131.633,549.843,135.204,535.562z"/>
	</g>
</g>
</svg>
