<?xml version="1.0" encoding="UTF-8"?>
<svg xmlns="http://www.w3.org/2000/svg" xmlns:xlink="http://www.w3.org/1999/xlink" width="500pt" height="500pt" viewBox="0 0 500 500" version="1.1">
<g id="surface4456">
<path style="fill-rule:evenodd;fill:rgb(100%,100%,100%);fill-opacity:1;stroke-width:1;stroke-linecap:round;stroke-linejoin:miter;stroke:rgb(74.509804%,74.509804%,74.509804%);stroke-opacity:1;stroke-miterlimit:10;" d="M 54 57 L 103.363281 85.5 L 103.363281 28.5 L 54 0 Z M 54 57 L 4.636719 85.5 L 54 114 L 103.363281 85.5 Z M 54 57 L 54 0 L 4.636719 28.5 L 4.636719 85.5 "/>
<path style="fill-rule:evenodd;fill:rgb(100%,100%,100%);fill-opacity:1;stroke-width:1;stroke-linecap:round;stroke-linejoin:miter;stroke:rgb(74.509804%,74.509804%,74.509804%);stroke-opacity:1;stroke-miterlimit:10;" d="M 54 57 L 54 98 L 89.507812 77.5 L 89.507812 36.5 Z M 54 57 L 18.492188 36.5 L 18.492188 77.5 L 54 98 Z M 54 57 L 89.507812 36.5 L 54 16 L 18.492188 36.5 "/>
<path style="fill-rule:evenodd;fill:rgb(100%,100%,100%);fill-opacity:1;stroke-width:1;stroke-linecap:round;stroke-linejoin:miter;stroke:rgb(74.509804%,74.509804%,74.509804%);stroke-opacity:1;stroke-miterlimit:10;" d="M 54 57 L 79.980469 72 L 79.980469 42 L 54 27 Z M 54 57 L 28.019531 72 L 54 87 L 79.980469 72 Z M 54 57 L 54 27 L 28.019531 42 L 28.019531 72 "/>
<path style="fill-rule:evenodd;fill:rgb(100%,100%,100%);fill-opacity:1;stroke-width:1;stroke-linecap:round;stroke-linejoin:miter;stroke:rgb(74.509804%,74.509804%,74.509804%);stroke-opacity:1;stroke-miterlimit:10;" d="M 152.726562 57 L 202.089844 85.5 L 202.089844 28.5 L 152.726562 0 Z M 152.726562 57 L 103.363281 85.5 L 152.726562 114 L 202.089844 85.5 Z M 152.726562 57 L 152.726562 0 L 103.363281 28.5 L 103.363281 85.5 "/>
<path style="fill-rule:evenodd;fill:rgb(100%,100%,100%);fill-opacity:1;stroke-width:1;stroke-linecap:round;stroke-linejoin:miter;stroke:rgb(74.509804%,74.509804%,74.509804%);stroke-opacity:1;stroke-miterlimit:10;" d="M 152.726562 57 L 152.726562 94 L 184.769531 75.5 L 184.769531 38.5 Z M 152.726562 57 L 120.683594 38.5 L 120.683594 75.5 L 152.726562 94 Z M 152.726562 57 L 184.769531 38.5 L 152.726562 20 L 120.683594 38.5 "/>
<path style="fill-rule:evenodd;fill:rgb(100%,100%,100%);fill-opacity:1;stroke-width:1;stroke-linecap:round;stroke-linejoin:miter;stroke:rgb(74.509804%,74.509804%,74.509804%);stroke-opacity:1;stroke-miterlimit:10;" d="M 152.726562 57 L 174.378906 69.5 L 174.378906 44.5 L 152.726562 32 Z M 152.726562 57 L 131.078125 69.5 L 152.726562 82 L 174.378906 69.5 Z M 152.726562 57 L 152.726562 32 L 131.078125 44.5 L 131.078125 69.5 "/>
<path style="fill-rule:evenodd;fill:rgb(100%,100%,100%);fill-opacity:1;stroke-width:1;stroke-linecap:round;stroke-linejoin:miter;stroke:rgb(74.509804%,74.509804%,74.509804%);stroke-opacity:1;stroke-miterlimit:10;" d="M 152.726562 57 L 152.726562 72 L 165.71875 64.5 L 165.71875 49.5 Z M 152.726562 57 L 139.738281 49.5 L 139.738281 64.5 L 152.726562 72 Z M 152.726562 57 L 165.71875 49.5 L 152.726562 42 L 139.738281 49.5 "/>
<path style="fill-rule:evenodd;fill:rgb(100%,100%,100%);fill-opacity:1;stroke-width:1;stroke-linecap:round;stroke-linejoin:miter;stroke:rgb(74.509804%,74.509804%,74.509804%);stroke-opacity:1;stroke-miterlimit:10;" d="M 251.453125 57 L 251.453125 114 L 300.816406 85.5 L 300.816406 28.5 Z M 251.453125 57 L 202.089844 28.5 L 202.089844 85.5 L 251.453125 114 Z M 251.453125 57 L 300.816406 28.5 L 251.453125 0 L 202.089844 28.5 "/>
<path style="fill-rule:evenodd;fill:rgb(100%,100%,100%);fill-opacity:1;stroke-width:1;stroke-linecap:round;stroke-linejoin:miter;stroke:rgb(74.509804%,74.509804%,74.509804%);stroke-opacity:1;stroke-miterlimit:10;" d="M 251.453125 57 L 279.167969 73 L 279.167969 41 L 251.453125 25 Z M 251.453125 57 L 223.742188 73 L 251.453125 89 L 279.167969 73 Z M 251.453125 57 L 251.453125 25 L 223.742188 41 L 223.742188 73 "/>
<path style="fill-rule:evenodd;fill:rgb(100%,100%,100%);fill-opacity:1;stroke-width:1;stroke-linecap:round;stroke-linejoin:miter;stroke:rgb(74.509804%,74.509804%,74.509804%);stroke-opacity:1;stroke-miterlimit:10;" d="M 251.453125 57 L 251.453125 76 L 267.910156 66.5 L 267.910156 47.5 Z M 251.453125 57 L 235 47.5 L 235 66.5 L 251.453125 76 Z M 251.453125 57 L 267.910156 47.5 L 251.453125 38 L 235 47.5 "/>
<path style="fill-rule:evenodd;fill:rgb(100%,100%,100%);fill-opacity:1;stroke-width:1;stroke-linecap:round;stroke-linejoin:miter;stroke:rgb(74.509804%,74.509804%,74.509804%);stroke-opacity:1;stroke-miterlimit:10;" d="M 251.453125 57 L 260.113281 62 L 260.113281 52 L 251.453125 47 Z M 251.453125 57 L 242.792969 62 L 251.453125 67 L 260.113281 62 Z M 251.453125 57 L 251.453125 47 L 242.792969 52 L 242.792969 62 "/>
<path style="fill-rule:evenodd;fill:rgb(100%,100%,100%);fill-opacity:1;stroke-width:1;stroke-linecap:round;stroke-linejoin:miter;stroke:rgb(74.509804%,74.509804%,74.509804%);stroke-opacity:1;stroke-miterlimit:10;" d="M 251.453125 57 L 251.453125 67 L 260.113281 62 L 260.113281 52 Z M 251.453125 57 L 242.792969 52 L 242.792969 62 L 251.453125 67 Z M 251.453125 57 L 260.113281 52 L 251.453125 47 L 242.792969 52 "/>
<path style="fill-rule:evenodd;fill:rgb(100%,100%,100%);fill-opacity:1;stroke-width:1;stroke-linecap:round;stroke-linejoin:miter;stroke:rgb(74.509804%,74.509804%,74.509804%);stroke-opacity:1;stroke-miterlimit:10;" d="M 350.179688 57 L 350.179688 114 L 399.542969 85.5 L 399.542969 28.5 Z M 350.179688 57 L 300.816406 28.5 L 300.816406 85.5 L 350.179688 114 Z M 350.179688 57 L 399.542969 28.5 L 350.179688 0 L 300.816406 28.5 "/>
<path style="fill-rule:evenodd;fill:rgb(100%,100%,100%);fill-opacity:1;stroke-width:1;stroke-linecap:round;stroke-linejoin:miter;stroke:rgb(74.509804%,74.509804%,74.509804%);stroke-opacity:1;stroke-miterlimit:10;" d="M 350.179688 57 L 390.882812 80.5 L 390.882812 33.5 L 350.179688 10 Z M 350.179688 57 L 309.476562 80.5 L 350.179688 104 L 390.882812 80.5 Z M 350.179688 57 L 350.179688 10 L 309.476562 33.5 L 309.476562 80.5 "/>
<path style="fill-rule:evenodd;fill:rgb(100%,100%,100%);fill-opacity:1;stroke-width:1;stroke-linecap:round;stroke-linejoin:miter;stroke:rgb(74.509804%,74.509804%,74.509804%);stroke-opacity:1;stroke-miterlimit:10;" d="M 350.179688 57 L 350.179688 85 L 374.429688 71 L 374.429688 43 Z M 350.179688 57 L 325.933594 43 L 325.933594 71 L 350.179688 85 Z M 350.179688 57 L 374.429688 43 L 350.179688 29 L 325.933594 43 "/>
<path style="fill-rule:evenodd;fill:rgb(100%,100%,100%);fill-opacity:1;stroke-width:1;stroke-linecap:round;stroke-linejoin:miter;stroke:rgb(74.509804%,74.509804%,74.509804%);stroke-opacity:1;stroke-miterlimit:10;" d="M 350.179688 57 L 363.171875 64.5 L 363.171875 49.5 L 350.179688 42 Z M 350.179688 57 L 337.191406 64.5 L 350.179688 72 L 363.171875 64.5 Z M 350.179688 57 L 350.179688 42 L 337.191406 49.5 L 337.191406 64.5 "/>
<path style="fill-rule:evenodd;fill:rgb(100%,100%,100%);fill-opacity:1;stroke-width:1;stroke-linecap:round;stroke-linejoin:miter;stroke:rgb(74.509804%,74.509804%,74.509804%);stroke-opacity:1;stroke-miterlimit:10;" d="M 448.90625 57 L 448.90625 114 L 498.269531 85.5 L 498.269531 28.5 Z M 448.90625 57 L 399.542969 28.5 L 399.542969 85.5 L 448.90625 114 Z M 448.90625 57 L 498.269531 28.5 L 448.90625 0 L 399.542969 28.5 "/>
<path style="fill-rule:evenodd;fill:rgb(100%,100%,100%);fill-opacity:1;stroke-width:1;stroke-linecap:round;stroke-linejoin:miter;stroke:rgb(74.509804%,74.509804%,74.509804%);stroke-opacity:1;stroke-miterlimit:10;" d="M 448.90625 57 L 487.011719 79 L 487.011719 35 L 448.90625 13 Z M 448.90625 57 L 410.800781 79 L 448.90625 101 L 487.011719 79 Z M 448.90625 57 L 448.90625 13 L 410.800781 35 L 410.800781 79 "/>
<path style="fill-rule:evenodd;fill:rgb(100%,100%,100%);fill-opacity:1;stroke-width:1;stroke-linecap:round;stroke-linejoin:miter;stroke:rgb(74.509804%,74.509804%,74.509804%);stroke-opacity:1;stroke-miterlimit:10;" d="M 448.90625 57 L 448.90625 87 L 474.886719 72 L 474.886719 42 Z M 448.90625 57 L 422.925781 42 L 422.925781 72 L 448.90625 87 Z M 448.90625 57 L 474.886719 42 L 448.90625 27 L 422.925781 42 "/>
<path style="fill-rule:evenodd;fill:rgb(100%,100%,100%);fill-opacity:1;stroke-width:1;stroke-linecap:round;stroke-linejoin:miter;stroke:rgb(74.509804%,74.509804%,74.509804%);stroke-opacity:1;stroke-miterlimit:10;" d="M 103.363281 142.5 L 103.363281 199.5 L 152.726562 171 L 152.726562 114 Z M 103.363281 142.5 L 54 114 L 54 171 L 103.363281 199.5 Z M 103.363281 142.5 L 152.726562 114 L 103.363281 85.5 L 54 114 "/>
<path style="fill-rule:evenodd;fill:rgb(100%,100%,100%);fill-opacity:1;stroke-width:1;stroke-linecap:round;stroke-linejoin:miter;stroke:rgb(74.509804%,74.509804%,74.509804%);stroke-opacity:1;stroke-miterlimit:10;" d="M 103.363281 142.5 L 132.808594 159.5 L 132.808594 125.5 L 103.363281 108.5 Z M 103.363281 142.5 L 73.917969 159.5 L 103.363281 176.5 L 132.808594 159.5 Z M 103.363281 142.5 L 103.363281 108.5 L 73.917969 125.5 L 73.917969 159.5 "/>
<path style="fill-rule:evenodd;fill:rgb(100%,100%,100%);fill-opacity:1;stroke-width:1;stroke-linecap:round;stroke-linejoin:miter;stroke:rgb(74.509804%,74.509804%,74.509804%);stroke-opacity:1;stroke-miterlimit:10;" d="M 103.363281 142.5 L 103.363281 160.5 L 118.953125 151.5 L 118.953125 133.5 Z M 103.363281 142.5 L 87.773438 133.5 L 87.773438 151.5 L 103.363281 160.5 Z M 103.363281 142.5 L 118.953125 133.5 L 103.363281 124.5 L 87.773438 133.5 "/>
<path style="fill-rule:evenodd;fill:rgb(100%,100%,100%);fill-opacity:1;stroke-width:1;stroke-linecap:round;stroke-linejoin:miter;stroke:rgb(74.509804%,74.509804%,74.509804%);stroke-opacity:1;stroke-miterlimit:10;" d="M 103.363281 142.5 L 112.023438 147.5 L 112.023438 137.5 L 103.363281 132.5 Z M 103.363281 142.5 L 94.703125 147.5 L 103.363281 152.5 L 112.023438 147.5 Z M 103.363281 142.5 L 103.363281 132.5 L 94.703125 137.5 L 94.703125 147.5 "/>
<path style="fill-rule:evenodd;fill:rgb(100%,100%,100%);fill-opacity:1;stroke-width:1;stroke-linecap:round;stroke-linejoin:miter;stroke:rgb(74.509804%,74.509804%,74.509804%);stroke-opacity:1;stroke-miterlimit:10;" d="M 103.363281 142.5 L 103.363281 152.5 L 112.023438 147.5 L 112.023438 137.5 Z M 103.363281 142.5 L 94.703125 137.5 L 94.703125 147.5 L 103.363281 152.5 Z M 103.363281 142.5 L 112.023438 137.5 L 103.363281 132.5 L 94.703125 137.5 "/>
<path style="fill-rule:evenodd;fill:rgb(100%,100%,100%);fill-opacity:1;stroke-width:1;stroke-linecap:round;stroke-linejoin:miter;stroke:rgb(74.509804%,74.509804%,74.509804%);stroke-opacity:1;stroke-miterlimit:10;" d="M 202.089844 142.5 L 202.089844 199.5 L 251.453125 171 L 251.453125 114 Z M 202.089844 142.5 L 152.726562 114 L 152.726562 171 L 202.089844 199.5 Z M 202.089844 142.5 L 251.453125 114 L 202.089844 85.5 L 152.726562 114 "/>
<path style="fill-rule:evenodd;fill:rgb(100%,100%,100%);fill-opacity:1;stroke-width:1;stroke-linecap:round;stroke-linejoin:miter;stroke:rgb(74.509804%,74.509804%,74.509804%);stroke-opacity:1;stroke-miterlimit:10;" d="M 202.089844 142.5 L 238.464844 163.5 L 238.464844 121.5 L 202.089844 100.5 Z M 202.089844 142.5 L 165.71875 163.5 L 202.089844 184.5 L 238.464844 163.5 Z M 202.089844 142.5 L 202.089844 100.5 L 165.71875 121.5 L 165.71875 163.5 "/>
<path style="fill-rule:evenodd;fill:rgb(100%,100%,100%);fill-opacity:1;stroke-width:1;stroke-linecap:round;stroke-linejoin:miter;stroke:rgb(74.509804%,74.509804%,74.509804%);stroke-opacity:1;stroke-miterlimit:10;" d="M 202.089844 142.5 L 202.089844 171.5 L 227.207031 157 L 227.207031 128 Z M 202.089844 142.5 L 176.976562 128 L 176.976562 157 L 202.089844 171.5 Z M 202.089844 142.5 L 227.207031 128 L 202.089844 113.5 L 176.976562 128 "/>
<path style="fill-rule:evenodd;fill:rgb(100%,100%,100%);fill-opacity:1;stroke-width:1;stroke-linecap:round;stroke-linejoin:miter;stroke:rgb(74.509804%,74.509804%,74.509804%);stroke-opacity:1;stroke-miterlimit:10;" d="M 300.816406 142.5 L 300.816406 199.5 L 350.179688 171 L 350.179688 114 Z M 300.816406 142.5 L 251.453125 114 L 251.453125 171 L 300.816406 199.5 Z M 300.816406 142.5 L 350.179688 114 L 300.816406 85.5 L 251.453125 114 "/>
<path style="fill-rule:evenodd;fill:rgb(100%,100%,100%);fill-opacity:1;stroke-width:1;stroke-linecap:round;stroke-linejoin:miter;stroke:rgb(74.509804%,74.509804%,74.509804%);stroke-opacity:1;stroke-miterlimit:10;" d="M 300.816406 142.5 L 335.457031 162.5 L 335.457031 122.5 L 300.816406 102.5 Z M 300.816406 142.5 L 266.175781 162.5 L 300.816406 182.5 L 335.457031 162.5 Z M 300.816406 142.5 L 300.816406 102.5 L 266.175781 122.5 L 266.175781 162.5 "/>
<path style="fill-rule:evenodd;fill:rgb(100%,100%,100%);fill-opacity:1;stroke-width:1;stroke-linecap:round;stroke-linejoin:miter;stroke:rgb(74.509804%,74.509804%,74.509804%);stroke-opacity:1;stroke-miterlimit:10;" d="M 300.816406 142.5 L 300.816406 163.5 L 319.003906 153 L 319.003906 132 Z M 300.816406 142.5 L 282.628906 132 L 282.628906 153 L 300.816406 163.5 Z M 300.816406 142.5 L 319.003906 132 L 300.816406 121.5 L 282.628906 132 "/>
<path style="fill-rule:evenodd;fill:rgb(100%,100%,100%);fill-opacity:1;stroke-width:1;stroke-linecap:round;stroke-linejoin:miter;stroke:rgb(74.509804%,74.509804%,74.509804%);stroke-opacity:1;stroke-miterlimit:10;" d="M 399.542969 142.5 L 448.90625 171 L 448.90625 114 L 399.542969 85.5 Z M 399.542969 142.5 L 350.179688 171 L 399.542969 199.5 L 448.90625 171 Z M 399.542969 142.5 L 399.542969 85.5 L 350.179688 114 L 350.179688 171 "/>
<path style="fill-rule:evenodd;fill:rgb(100%,100%,100%);fill-opacity:1;stroke-width:1;stroke-linecap:round;stroke-linejoin:miter;stroke:rgb(74.509804%,74.509804%,74.509804%);stroke-opacity:1;stroke-miterlimit:10;" d="M 399.542969 142.5 L 399.542969 176.5 L 428.988281 159.5 L 428.988281 125.5 Z M 399.542969 142.5 L 370.097656 125.5 L 370.097656 159.5 L 399.542969 176.5 Z M 399.542969 142.5 L 428.988281 125.5 L 399.542969 108.5 L 370.097656 125.5 "/>
<path style="fill-rule:evenodd;fill:rgb(100%,100%,100%);fill-opacity:1;stroke-width:1;stroke-linecap:round;stroke-linejoin:miter;stroke:rgb(74.509804%,74.509804%,74.509804%);stroke-opacity:1;stroke-miterlimit:10;" d="M 399.542969 142.5 L 417.730469 153 L 417.730469 132 L 399.542969 121.5 Z M 399.542969 142.5 L 381.359375 153 L 399.542969 163.5 L 417.730469 153 Z M 399.542969 142.5 L 399.542969 121.5 L 381.359375 132 L 381.359375 153 "/>
<path style="fill-rule:evenodd;fill:rgb(100%,100%,100%);fill-opacity:1;stroke-width:1;stroke-linecap:round;stroke-linejoin:miter;stroke:rgb(74.509804%,74.509804%,74.509804%);stroke-opacity:1;stroke-miterlimit:10;" d="M 152.726562 228 L 152.726562 285 L 202.089844 256.5 L 202.089844 199.5 Z M 152.726562 228 L 103.363281 199.5 L 103.363281 256.5 L 152.726562 285 Z M 152.726562 228 L 202.089844 199.5 L 152.726562 171 L 103.363281 199.5 "/>
<path style="fill-rule:evenodd;fill:rgb(100%,100%,100%);fill-opacity:1;stroke-width:1;stroke-linecap:round;stroke-linejoin:miter;stroke:rgb(74.509804%,74.509804%,74.509804%);stroke-opacity:1;stroke-miterlimit:10;" d="M 152.726562 228 L 179.574219 243.5 L 179.574219 212.5 L 152.726562 197 Z M 152.726562 228 L 125.878906 243.5 L 152.726562 259 L 179.574219 243.5 Z M 152.726562 228 L 152.726562 197 L 125.878906 212.5 L 125.878906 243.5 "/>
<path style="fill-rule:evenodd;fill:rgb(100%,100%,100%);fill-opacity:1;stroke-width:1;stroke-linecap:round;stroke-linejoin:miter;stroke:rgb(74.509804%,74.509804%,74.509804%);stroke-opacity:1;stroke-miterlimit:10;" d="M 152.726562 228 L 152.726562 249 L 170.914062 238.5 L 170.914062 217.5 Z M 152.726562 228 L 134.539062 217.5 L 134.539062 238.5 L 152.726562 249 Z M 152.726562 228 L 170.914062 217.5 L 152.726562 207 L 134.539062 217.5 "/>
<path style="fill-rule:evenodd;fill:rgb(100%,100%,100%);fill-opacity:1;stroke-width:1;stroke-linecap:round;stroke-linejoin:miter;stroke:rgb(74.509804%,74.509804%,74.509804%);stroke-opacity:1;stroke-miterlimit:10;" d="M 251.453125 228 L 251.453125 285 L 300.816406 256.5 L 300.816406 199.5 Z M 251.453125 228 L 202.089844 199.5 L 202.089844 256.5 L 251.453125 285 Z M 251.453125 228 L 300.816406 199.5 L 251.453125 171 L 202.089844 199.5 "/>
<path style="fill-rule:evenodd;fill:rgb(100%,100%,100%);fill-opacity:1;stroke-width:1;stroke-linecap:round;stroke-linejoin:miter;stroke:rgb(74.509804%,74.509804%,74.509804%);stroke-opacity:1;stroke-miterlimit:10;" d="M 251.453125 228 L 283.496094 246.5 L 283.496094 209.5 L 251.453125 191 Z M 251.453125 228 L 219.410156 246.5 L 251.453125 265 L 283.496094 246.5 Z M 251.453125 228 L 251.453125 191 L 219.410156 209.5 L 219.410156 246.5 "/>
<path style="fill-rule:evenodd;fill:rgb(100%,100%,100%);fill-opacity:1;stroke-width:1;stroke-linecap:round;stroke-linejoin:miter;stroke:rgb(74.509804%,74.509804%,74.509804%);stroke-opacity:1;stroke-miterlimit:10;" d="M 251.453125 228 L 251.453125 251 L 271.371094 239.5 L 271.371094 216.5 Z M 251.453125 228 L 231.535156 216.5 L 231.535156 239.5 L 251.453125 251 Z M 251.453125 228 L 271.371094 216.5 L 251.453125 205 L 231.535156 216.5 "/>
<path style="fill-rule:evenodd;fill:rgb(100%,100%,100%);fill-opacity:1;stroke-width:1;stroke-linecap:round;stroke-linejoin:miter;stroke:rgb(74.509804%,74.509804%,74.509804%);stroke-opacity:1;stroke-miterlimit:10;" d="M 251.453125 228 L 262.710938 234.5 L 262.710938 221.5 L 251.453125 215 Z M 251.453125 228 L 240.195312 234.5 L 251.453125 241 L 262.710938 234.5 Z M 251.453125 228 L 251.453125 215 L 240.195312 221.5 L 240.195312 234.5 "/>
<path style="fill-rule:evenodd;fill:rgb(100%,100%,100%);fill-opacity:1;stroke-width:1;stroke-linecap:round;stroke-linejoin:miter;stroke:rgb(74.509804%,74.509804%,74.509804%);stroke-opacity:1;stroke-miterlimit:10;" d="M 350.179688 228 L 399.542969 256.5 L 399.542969 199.5 L 350.179688 171 Z M 350.179688 228 L 300.816406 256.5 L 350.179688 285 L 399.542969 256.5 Z M 350.179688 228 L 350.179688 171 L 300.816406 199.5 L 300.816406 256.5 "/>
<path style="fill-rule:evenodd;fill:rgb(100%,100%,100%);fill-opacity:1;stroke-width:1;stroke-linecap:round;stroke-linejoin:miter;stroke:rgb(74.509804%,74.509804%,74.509804%);stroke-opacity:1;stroke-miterlimit:10;" d="M 350.179688 228 L 350.179688 271 L 387.417969 249.5 L 387.417969 206.5 Z M 350.179688 228 L 312.941406 206.5 L 312.941406 249.5 L 350.179688 271 Z M 350.179688 228 L 387.417969 206.5 L 350.179688 185 L 312.941406 206.5 "/>
<path style="fill-rule:evenodd;fill:rgb(100%,100%,100%);fill-opacity:1;stroke-width:1;stroke-linecap:round;stroke-linejoin:miter;stroke:rgb(74.509804%,74.509804%,74.509804%);stroke-opacity:1;stroke-miterlimit:10;" d="M 350.179688 228 L 370.097656 239.5 L 370.097656 216.5 L 350.179688 205 Z M 350.179688 228 L 330.261719 239.5 L 350.179688 251 L 370.097656 239.5 Z M 350.179688 228 L 350.179688 205 L 330.261719 216.5 L 330.261719 239.5 "/>
<path style="fill-rule:evenodd;fill:rgb(100%,100%,100%);fill-opacity:1;stroke-width:1;stroke-linecap:round;stroke-linejoin:miter;stroke:rgb(74.509804%,74.509804%,74.509804%);stroke-opacity:1;stroke-miterlimit:10;" d="M 350.179688 228 L 350.179688 241 L 361.4375 234.5 L 361.4375 221.5 Z M 350.179688 228 L 338.921875 221.5 L 338.921875 234.5 L 350.179688 241 Z M 350.179688 228 L 361.4375 221.5 L 350.179688 215 L 338.921875 221.5 "/>
<path style="fill-rule:evenodd;fill:rgb(100%,100%,100%);fill-opacity:1;stroke-width:1;stroke-linecap:round;stroke-linejoin:miter;stroke:rgb(74.509804%,74.509804%,74.509804%);stroke-opacity:1;stroke-miterlimit:10;" d="M 350.179688 228 L 358.839844 233 L 358.839844 223 L 350.179688 218 Z M 350.179688 228 L 341.519531 233 L 350.179688 238 L 358.839844 233 Z M 350.179688 228 L 350.179688 218 L 341.519531 223 L 341.519531 233 "/>
</g>
</svg>
