<?xml version="1.0" encoding="UTF-8"?>
<svg xmlns="http://www.w3.org/2000/svg" xmlns:xlink="http://www.w3.org/1999/xlink" width="500pt" height="500pt" viewBox="0 0 500 500" version="1.1">
<g id="surface14425">
<path style="fill-rule:evenodd;fill:rgb(100%,100%,100%);fill-opacity:1;stroke-width:1;stroke-linecap:round;stroke-linejoin:miter;stroke:rgb(74.509804%,74.509804%,74.509804%);stroke-opacity:1;stroke-miterlimit:10;" d="M 54 57 L 103.363281 85.5 L 103.363281 28.5 L 54 0 Z M 54 57 L 4.636719 85.5 L 54 114 L 103.363281 85.5 Z M 54 57 L 54 0 L 4.636719 28.5 L 4.636719 85.5 "/>
<path style="fill-rule:evenodd;fill:rgb(100%,100%,100%);fill-opacity:1;stroke-width:1;stroke-linecap:round;stroke-linejoin:miter;stroke:rgb(74.509804%,74.509804%,74.509804%);stroke-opacity:1;stroke-miterlimit:10;" d="M 54 57 L 54 98 L 89.507812 77.5 L 89.507812 36.5 Z M 54 57 L 18.492188 36.5 L 18.492188 77.5 L 54 98 Z M 54 57 L 89.507812 36.5 L 54 16 L 18.492188 36.5 "/>
<path style="fill-rule:evenodd;fill:rgb(100%,100%,100%);fill-opacity:1;stroke-width:1;stroke-linecap:round;stroke-linejoin:miter;stroke:rgb(74.509804%,74.509804%,74.509804%);stroke-opacity:1;stroke-miterlimit:10;" d="M 54 57 L 79.113281 71.5 L 79.113281 42.5 L 54 28 Z M 54 57 L 28.886719 71.5 L 54 86 L 79.113281 71.5 Z M 54 57 L 54 28 L 28.886719 42.5 L 28.886719 71.5 "/>
<path style="fill-rule:evenodd;fill:rgb(100%,100%,100%);fill-opacity:1;stroke-width:1;stroke-linecap:round;stroke-linejoin:miter;stroke:rgb(74.509804%,74.509804%,74.509804%);stroke-opacity:1;stroke-miterlimit:10;" d="M 54 57 L 54 76 L 70.453125 66.5 L 70.453125 47.5 Z M 54 57 L 37.546875 47.5 L 37.546875 66.5 L 54 76 Z M 54 57 L 70.453125 47.5 L 54 38 L 37.546875 47.5 "/>
<path style="fill-rule:evenodd;fill:rgb(100%,100%,100%);fill-opacity:1;stroke-width:1;stroke-linecap:round;stroke-linejoin:miter;stroke:rgb(74.509804%,74.509804%,74.509804%);stroke-opacity:1;stroke-miterlimit:10;" d="M 152.726562 57 L 202.089844 85.5 L 202.089844 28.5 L 152.726562 0 Z M 152.726562 57 L 103.363281 85.5 L 152.726562 114 L 202.089844 85.5 Z M 152.726562 57 L 152.726562 0 L 103.363281 28.5 L 103.363281 85.5 "/>
<path style="fill-rule:evenodd;fill:rgb(100%,100%,100%);fill-opacity:1;stroke-width:1;stroke-linecap:round;stroke-linejoin:miter;stroke:rgb(74.509804%,74.509804%,74.509804%);stroke-opacity:1;stroke-miterlimit:10;" d="M 152.726562 57 L 152.726562 100 L 189.964844 78.5 L 189.964844 35.5 Z M 152.726562 57 L 115.488281 35.5 L 115.488281 78.5 L 152.726562 100 Z M 152.726562 57 L 189.964844 35.5 L 152.726562 14 L 115.488281 35.5 "/>
<path style="fill-rule:evenodd;fill:rgb(100%,100%,100%);fill-opacity:1;stroke-width:1;stroke-linecap:round;stroke-linejoin:miter;stroke:rgb(74.509804%,74.509804%,74.509804%);stroke-opacity:1;stroke-miterlimit:10;" d="M 152.726562 57 L 175.242188 70 L 175.242188 44 L 152.726562 31 Z M 152.726562 57 L 130.210938 70 L 152.726562 83 L 175.242188 70 Z M 152.726562 57 L 152.726562 31 L 130.210938 44 L 130.210938 70 "/>
<path style="fill-rule:evenodd;fill:rgb(100%,100%,100%);fill-opacity:1;stroke-width:1;stroke-linecap:round;stroke-linejoin:miter;stroke:rgb(74.509804%,74.509804%,74.509804%);stroke-opacity:1;stroke-miterlimit:10;" d="M 251.453125 57 L 300.816406 85.5 L 300.816406 28.5 L 251.453125 0 Z M 251.453125 57 L 202.089844 85.5 L 251.453125 114 L 300.816406 85.5 Z M 251.453125 57 L 251.453125 0 L 202.089844 28.5 L 202.089844 85.5 "/>
<path style="fill-rule:evenodd;fill:rgb(100%,100%,100%);fill-opacity:1;stroke-width:1;stroke-linecap:round;stroke-linejoin:miter;stroke:rgb(74.509804%,74.509804%,74.509804%);stroke-opacity:1;stroke-miterlimit:10;" d="M 251.453125 57 L 251.453125 97 L 286.09375 77 L 286.09375 37 Z M 251.453125 57 L 216.8125 37 L 216.8125 77 L 251.453125 97 Z M 251.453125 57 L 286.09375 37 L 251.453125 17 L 216.8125 37 "/>
<path style="fill-rule:evenodd;fill:rgb(100%,100%,100%);fill-opacity:1;stroke-width:1;stroke-linecap:round;stroke-linejoin:miter;stroke:rgb(74.509804%,74.509804%,74.509804%);stroke-opacity:1;stroke-miterlimit:10;" d="M 251.453125 57 L 273.105469 69.5 L 273.105469 44.5 L 251.453125 32 Z M 251.453125 57 L 229.804688 69.5 L 251.453125 82 L 273.105469 69.5 Z M 251.453125 57 L 251.453125 32 L 229.804688 44.5 L 229.804688 69.5 "/>
<path style="fill-rule:evenodd;fill:rgb(100%,100%,100%);fill-opacity:1;stroke-width:1;stroke-linecap:round;stroke-linejoin:miter;stroke:rgb(74.509804%,74.509804%,74.509804%);stroke-opacity:1;stroke-miterlimit:10;" d="M 251.453125 57 L 251.453125 72 L 264.445312 64.5 L 264.445312 49.5 Z M 251.453125 57 L 238.464844 49.5 L 238.464844 64.5 L 251.453125 72 Z M 251.453125 57 L 264.445312 49.5 L 251.453125 42 L 238.464844 49.5 "/>
<path style="fill-rule:evenodd;fill:rgb(100%,100%,100%);fill-opacity:1;stroke-width:1;stroke-linecap:round;stroke-linejoin:miter;stroke:rgb(74.509804%,74.509804%,74.509804%);stroke-opacity:1;stroke-miterlimit:10;" d="M 251.453125 57 L 260.113281 62 L 260.113281 52 L 251.453125 47 Z M 251.453125 57 L 242.792969 62 L 251.453125 67 L 260.113281 62 Z M 251.453125 57 L 251.453125 47 L 242.792969 52 L 242.792969 62 "/>
<path style="fill-rule:evenodd;fill:rgb(100%,100%,100%);fill-opacity:1;stroke-width:1;stroke-linecap:round;stroke-linejoin:miter;stroke:rgb(74.509804%,74.509804%,74.509804%);stroke-opacity:1;stroke-miterlimit:10;" d="M 350.179688 57 L 350.179688 114 L 399.542969 85.5 L 399.542969 28.5 Z M 350.179688 57 L 300.816406 28.5 L 300.816406 85.5 L 350.179688 114 Z M 350.179688 57 L 399.542969 28.5 L 350.179688 0 L 300.816406 28.5 "/>
<path style="fill-rule:evenodd;fill:rgb(100%,100%,100%);fill-opacity:1;stroke-width:1;stroke-linecap:round;stroke-linejoin:miter;stroke:rgb(74.509804%,74.509804%,74.509804%);stroke-opacity:1;stroke-miterlimit:10;" d="M 350.179688 57 L 385.6875 77.5 L 385.6875 36.5 L 350.179688 16 Z M 350.179688 57 L 314.671875 77.5 L 350.179688 98 L 385.6875 77.5 Z M 350.179688 57 L 350.179688 16 L 314.671875 36.5 L 314.671875 77.5 "/>
<path style="fill-rule:evenodd;fill:rgb(100%,100%,100%);fill-opacity:1;stroke-width:1;stroke-linecap:round;stroke-linejoin:miter;stroke:rgb(74.509804%,74.509804%,74.509804%);stroke-opacity:1;stroke-miterlimit:10;" d="M 350.179688 57 L 350.179688 83 L 372.699219 70 L 372.699219 44 Z M 350.179688 57 L 327.664062 44 L 327.664062 70 L 350.179688 83 Z M 350.179688 57 L 372.699219 44 L 350.179688 31 L 327.664062 44 "/>
<path style="fill-rule:evenodd;fill:rgb(100%,100%,100%);fill-opacity:1;stroke-width:1;stroke-linecap:round;stroke-linejoin:miter;stroke:rgb(74.509804%,74.509804%,74.509804%);stroke-opacity:1;stroke-miterlimit:10;" d="M 350.179688 57 L 363.171875 64.5 L 363.171875 49.5 L 350.179688 42 Z M 350.179688 57 L 337.191406 64.5 L 350.179688 72 L 363.171875 64.5 Z M 350.179688 57 L 350.179688 42 L 337.191406 49.5 L 337.191406 64.5 "/>
<path style="fill-rule:evenodd;fill:rgb(100%,100%,100%);fill-opacity:1;stroke-width:1;stroke-linecap:round;stroke-linejoin:miter;stroke:rgb(74.509804%,74.509804%,74.509804%);stroke-opacity:1;stroke-miterlimit:10;" d="M 448.90625 57 L 498.269531 85.5 L 498.269531 28.5 L 448.90625 0 Z M 448.90625 57 L 399.542969 85.5 L 448.90625 114 L 498.269531 85.5 Z M 448.90625 57 L 448.90625 0 L 399.542969 28.5 L 399.542969 85.5 "/>
<path style="fill-rule:evenodd;fill:rgb(100%,100%,100%);fill-opacity:1;stroke-width:1;stroke-linecap:round;stroke-linejoin:miter;stroke:rgb(74.509804%,74.509804%,74.509804%);stroke-opacity:1;stroke-miterlimit:10;" d="M 448.90625 57 L 448.90625 92 L 479.21875 74.5 L 479.21875 39.5 Z M 448.90625 57 L 418.597656 39.5 L 418.597656 74.5 L 448.90625 92 Z M 448.90625 57 L 479.21875 39.5 L 448.90625 22 L 418.597656 39.5 "/>
<path style="fill-rule:evenodd;fill:rgb(100%,100%,100%);fill-opacity:1;stroke-width:1;stroke-linecap:round;stroke-linejoin:miter;stroke:rgb(74.509804%,74.509804%,74.509804%);stroke-opacity:1;stroke-miterlimit:10;" d="M 448.90625 57 L 469.691406 69 L 469.691406 45 L 448.90625 33 Z M 448.90625 57 L 428.121094 69 L 448.90625 81 L 469.691406 69 Z M 448.90625 57 L 448.90625 33 L 428.121094 45 L 428.121094 69 "/>
<path style="fill-rule:evenodd;fill:rgb(100%,100%,100%);fill-opacity:1;stroke-width:1;stroke-linecap:round;stroke-linejoin:miter;stroke:rgb(74.509804%,74.509804%,74.509804%);stroke-opacity:1;stroke-miterlimit:10;" d="M 448.90625 57 L 448.90625 70 L 460.164062 63.5 L 460.164062 50.5 Z M 448.90625 57 L 437.648438 50.5 L 437.648438 63.5 L 448.90625 70 Z M 448.90625 57 L 460.164062 50.5 L 448.90625 44 L 437.648438 50.5 "/>
<path style="fill-rule:evenodd;fill:rgb(100%,100%,100%);fill-opacity:1;stroke-width:1;stroke-linecap:round;stroke-linejoin:miter;stroke:rgb(74.509804%,74.509804%,74.509804%);stroke-opacity:1;stroke-miterlimit:10;" d="M 448.90625 57 L 457.566406 62 L 457.566406 52 L 448.90625 47 Z M 448.90625 57 L 440.246094 62 L 448.90625 67 L 457.566406 62 Z M 448.90625 57 L 448.90625 47 L 440.246094 52 L 440.246094 62 "/>
<path style="fill-rule:evenodd;fill:rgb(100%,100%,100%);fill-opacity:1;stroke-width:1;stroke-linecap:round;stroke-linejoin:miter;stroke:rgb(74.509804%,74.509804%,74.509804%);stroke-opacity:1;stroke-miterlimit:10;" d="M 103.363281 142.5 L 152.726562 171 L 152.726562 114 L 103.363281 85.5 Z M 103.363281 142.5 L 54 171 L 103.363281 199.5 L 152.726562 171 Z M 103.363281 142.5 L 103.363281 85.5 L 54 114 L 54 171 "/>
<path style="fill-rule:evenodd;fill:rgb(100%,100%,100%);fill-opacity:1;stroke-width:1;stroke-linecap:round;stroke-linejoin:miter;stroke:rgb(74.509804%,74.509804%,74.509804%);stroke-opacity:1;stroke-miterlimit:10;" d="M 103.363281 142.5 L 103.363281 187.5 L 142.335938 165 L 142.335938 120 Z M 103.363281 142.5 L 64.390625 120 L 64.390625 165 L 103.363281 187.5 Z M 103.363281 142.5 L 142.335938 120 L 103.363281 97.5 L 64.390625 120 "/>
<path style="fill-rule:evenodd;fill:rgb(100%,100%,100%);fill-opacity:1;stroke-width:1;stroke-linecap:round;stroke-linejoin:miter;stroke:rgb(74.509804%,74.509804%,74.509804%);stroke-opacity:1;stroke-miterlimit:10;" d="M 103.363281 142.5 L 131.941406 159 L 131.941406 126 L 103.363281 109.5 Z M 103.363281 142.5 L 74.785156 159 L 103.363281 175.5 L 131.941406 159 Z M 103.363281 142.5 L 103.363281 109.5 L 74.785156 126 L 74.785156 159 "/>
<path style="fill-rule:evenodd;fill:rgb(100%,100%,100%);fill-opacity:1;stroke-width:1;stroke-linecap:round;stroke-linejoin:miter;stroke:rgb(74.509804%,74.509804%,74.509804%);stroke-opacity:1;stroke-miterlimit:10;" d="M 103.363281 142.5 L 103.363281 161.5 L 119.816406 152 L 119.816406 133 Z M 103.363281 142.5 L 86.910156 133 L 86.910156 152 L 103.363281 161.5 Z M 103.363281 142.5 L 119.816406 133 L 103.363281 123.5 L 86.910156 133 "/>
<path style="fill-rule:evenodd;fill:rgb(100%,100%,100%);fill-opacity:1;stroke-width:1;stroke-linecap:round;stroke-linejoin:miter;stroke:rgb(74.509804%,74.509804%,74.509804%);stroke-opacity:1;stroke-miterlimit:10;" d="M 103.363281 142.5 L 112.023438 147.5 L 112.023438 137.5 L 103.363281 132.5 Z M 103.363281 142.5 L 94.703125 147.5 L 103.363281 152.5 L 112.023438 147.5 Z M 103.363281 142.5 L 103.363281 132.5 L 94.703125 137.5 L 94.703125 147.5 "/>
<path style="fill-rule:evenodd;fill:rgb(100%,100%,100%);fill-opacity:1;stroke-width:1;stroke-linecap:round;stroke-linejoin:miter;stroke:rgb(74.509804%,74.509804%,74.509804%);stroke-opacity:1;stroke-miterlimit:10;" d="M 202.089844 142.5 L 202.089844 199.5 L 251.453125 171 L 251.453125 114 Z M 202.089844 142.5 L 152.726562 114 L 152.726562 171 L 202.089844 199.5 Z M 202.089844 142.5 L 251.453125 114 L 202.089844 85.5 L 152.726562 114 "/>
<path style="fill-rule:evenodd;fill:rgb(100%,100%,100%);fill-opacity:1;stroke-width:1;stroke-linecap:round;stroke-linejoin:miter;stroke:rgb(74.509804%,74.509804%,74.509804%);stroke-opacity:1;stroke-miterlimit:10;" d="M 202.089844 142.5 L 235 161.5 L 235 123.5 L 202.089844 104.5 Z M 202.089844 142.5 L 169.179688 161.5 L 202.089844 180.5 L 235 161.5 Z M 202.089844 142.5 L 202.089844 104.5 L 169.179688 123.5 L 169.179688 161.5 "/>
<path style="fill-rule:evenodd;fill:rgb(100%,100%,100%);fill-opacity:1;stroke-width:1;stroke-linecap:round;stroke-linejoin:miter;stroke:rgb(74.509804%,74.509804%,74.509804%);stroke-opacity:1;stroke-miterlimit:10;" d="M 202.089844 142.5 L 202.089844 165.5 L 222.007812 154 L 222.007812 131 Z M 202.089844 142.5 L 182.171875 131 L 182.171875 154 L 202.089844 165.5 Z M 202.089844 142.5 L 222.007812 131 L 202.089844 119.5 L 182.171875 131 "/>
<path style="fill-rule:evenodd;fill:rgb(100%,100%,100%);fill-opacity:1;stroke-width:1;stroke-linecap:round;stroke-linejoin:miter;stroke:rgb(74.509804%,74.509804%,74.509804%);stroke-opacity:1;stroke-miterlimit:10;" d="M 202.089844 142.5 L 213.347656 149 L 213.347656 136 L 202.089844 129.5 Z M 202.089844 142.5 L 190.832031 149 L 202.089844 155.5 L 213.347656 149 Z M 202.089844 142.5 L 202.089844 129.5 L 190.832031 136 L 190.832031 149 "/>
<path style="fill-rule:evenodd;fill:rgb(100%,100%,100%);fill-opacity:1;stroke-width:1;stroke-linecap:round;stroke-linejoin:miter;stroke:rgb(74.509804%,74.509804%,74.509804%);stroke-opacity:1;stroke-miterlimit:10;" d="M 300.816406 142.5 L 300.816406 199.5 L 350.179688 171 L 350.179688 114 Z M 300.816406 142.5 L 251.453125 114 L 251.453125 171 L 300.816406 199.5 Z M 300.816406 142.5 L 350.179688 114 L 300.816406 85.5 L 251.453125 114 "/>
<path style="fill-rule:evenodd;fill:rgb(100%,100%,100%);fill-opacity:1;stroke-width:1;stroke-linecap:round;stroke-linejoin:miter;stroke:rgb(74.509804%,74.509804%,74.509804%);stroke-opacity:1;stroke-miterlimit:10;" d="M 300.816406 142.5 L 331.996094 160.5 L 331.996094 124.5 L 300.816406 106.5 Z M 300.816406 142.5 L 269.640625 160.5 L 300.816406 178.5 L 331.996094 160.5 Z M 300.816406 142.5 L 300.816406 106.5 L 269.640625 124.5 L 269.640625 160.5 "/>
<path style="fill-rule:evenodd;fill:rgb(100%,100%,100%);fill-opacity:1;stroke-width:1;stroke-linecap:round;stroke-linejoin:miter;stroke:rgb(74.509804%,74.509804%,74.509804%);stroke-opacity:1;stroke-miterlimit:10;" d="M 300.816406 142.5 L 300.816406 164.5 L 319.871094 153.5 L 319.871094 131.5 Z M 300.816406 142.5 L 281.765625 131.5 L 281.765625 153.5 L 300.816406 164.5 Z M 300.816406 142.5 L 319.871094 131.5 L 300.816406 120.5 L 281.765625 131.5 "/>
<path style="fill-rule:evenodd;fill:rgb(100%,100%,100%);fill-opacity:1;stroke-width:1;stroke-linecap:round;stroke-linejoin:miter;stroke:rgb(74.509804%,74.509804%,74.509804%);stroke-opacity:1;stroke-miterlimit:10;" d="M 300.816406 142.5 L 311.210938 148.5 L 311.210938 136.5 L 300.816406 130.5 Z M 300.816406 142.5 L 290.425781 148.5 L 300.816406 154.5 L 311.210938 148.5 Z M 300.816406 142.5 L 300.816406 130.5 L 290.425781 136.5 L 290.425781 148.5 "/>
<path style="fill-rule:evenodd;fill:rgb(100%,100%,100%);fill-opacity:1;stroke-width:1;stroke-linecap:round;stroke-linejoin:miter;stroke:rgb(74.509804%,74.509804%,74.509804%);stroke-opacity:1;stroke-miterlimit:10;" d="M 399.542969 142.5 L 399.542969 199.5 L 448.90625 171 L 448.90625 114 Z M 399.542969 142.5 L 350.179688 114 L 350.179688 171 L 399.542969 199.5 Z M 399.542969 142.5 L 448.90625 114 L 399.542969 85.5 L 350.179688 114 "/>
<path style="fill-rule:evenodd;fill:rgb(100%,100%,100%);fill-opacity:1;stroke-width:1;stroke-linecap:round;stroke-linejoin:miter;stroke:rgb(74.509804%,74.509804%,74.509804%);stroke-opacity:1;stroke-miterlimit:10;" d="M 399.542969 142.5 L 440.246094 166 L 440.246094 119 L 399.542969 95.5 Z M 399.542969 142.5 L 358.839844 166 L 399.542969 189.5 L 440.246094 166 Z M 399.542969 142.5 L 399.542969 95.5 L 358.839844 119 L 358.839844 166 "/>
<path style="fill-rule:evenodd;fill:rgb(100%,100%,100%);fill-opacity:1;stroke-width:1;stroke-linecap:round;stroke-linejoin:miter;stroke:rgb(74.509804%,74.509804%,74.509804%);stroke-opacity:1;stroke-miterlimit:10;" d="M 399.542969 142.5 L 399.542969 174.5 L 427.257812 158.5 L 427.257812 126.5 Z M 399.542969 142.5 L 371.832031 126.5 L 371.832031 158.5 L 399.542969 174.5 Z M 399.542969 142.5 L 427.257812 126.5 L 399.542969 110.5 L 371.832031 126.5 "/>
<path style="fill-rule:evenodd;fill:rgb(100%,100%,100%);fill-opacity:1;stroke-width:1;stroke-linecap:round;stroke-linejoin:miter;stroke:rgb(74.509804%,74.509804%,74.509804%);stroke-opacity:1;stroke-miterlimit:10;" d="M 152.726562 228 L 202.089844 256.5 L 202.089844 199.5 L 152.726562 171 Z M 152.726562 228 L 103.363281 256.5 L 152.726562 285 L 202.089844 256.5 Z M 152.726562 228 L 152.726562 171 L 103.363281 199.5 L 103.363281 256.5 "/>
<path style="fill-rule:evenodd;fill:rgb(100%,100%,100%);fill-opacity:1;stroke-width:1;stroke-linecap:round;stroke-linejoin:miter;stroke:rgb(74.509804%,74.509804%,74.509804%);stroke-opacity:1;stroke-miterlimit:10;" d="M 152.726562 228 L 152.726562 260 L 180.441406 244 L 180.441406 212 Z M 152.726562 228 L 125.015625 212 L 125.015625 244 L 152.726562 260 Z M 152.726562 228 L 180.441406 212 L 152.726562 196 L 125.015625 212 "/>
<path style="fill-rule:evenodd;fill:rgb(100%,100%,100%);fill-opacity:1;stroke-width:1;stroke-linecap:round;stroke-linejoin:miter;stroke:rgb(74.509804%,74.509804%,74.509804%);stroke-opacity:1;stroke-miterlimit:10;" d="M 152.726562 228 L 170.914062 238.5 L 170.914062 217.5 L 152.726562 207 Z M 152.726562 228 L 134.539062 238.5 L 152.726562 249 L 170.914062 238.5 Z M 152.726562 228 L 152.726562 207 L 134.539062 217.5 L 134.539062 238.5 "/>
<path style="fill-rule:evenodd;fill:rgb(100%,100%,100%);fill-opacity:1;stroke-width:1;stroke-linecap:round;stroke-linejoin:miter;stroke:rgb(74.509804%,74.509804%,74.509804%);stroke-opacity:1;stroke-miterlimit:10;" d="M 152.726562 228 L 152.726562 239 L 162.253906 233.5 L 162.253906 222.5 Z M 152.726562 228 L 143.199219 222.5 L 143.199219 233.5 L 152.726562 239 Z M 152.726562 228 L 162.253906 222.5 L 152.726562 217 L 143.199219 222.5 "/>
<path style="fill-rule:evenodd;fill:rgb(100%,100%,100%);fill-opacity:1;stroke-width:1;stroke-linecap:round;stroke-linejoin:miter;stroke:rgb(74.509804%,74.509804%,74.509804%);stroke-opacity:1;stroke-miterlimit:10;" d="M 152.726562 228 L 161.386719 233 L 161.386719 223 L 152.726562 218 Z M 152.726562 228 L 144.066406 233 L 152.726562 238 L 161.386719 233 Z M 152.726562 228 L 152.726562 218 L 144.066406 223 L 144.066406 233 "/>
<path style="fill-rule:evenodd;fill:rgb(100%,100%,100%);fill-opacity:1;stroke-width:1;stroke-linecap:round;stroke-linejoin:miter;stroke:rgb(74.509804%,74.509804%,74.509804%);stroke-opacity:1;stroke-miterlimit:10;" d="M 251.453125 228 L 251.453125 285 L 300.816406 256.5 L 300.816406 199.5 Z M 251.453125 228 L 202.089844 199.5 L 202.089844 256.5 L 251.453125 285 Z M 251.453125 228 L 300.816406 199.5 L 251.453125 171 L 202.089844 199.5 "/>
<path style="fill-rule:evenodd;fill:rgb(100%,100%,100%);fill-opacity:1;stroke-width:1;stroke-linecap:round;stroke-linejoin:miter;stroke:rgb(74.509804%,74.509804%,74.509804%);stroke-opacity:1;stroke-miterlimit:10;" d="M 251.453125 228 L 284.363281 247 L 284.363281 209 L 251.453125 190 Z M 251.453125 228 L 218.542969 247 L 251.453125 266 L 284.363281 247 Z M 251.453125 228 L 251.453125 190 L 218.542969 209 L 218.542969 247 "/>
<path style="fill-rule:evenodd;fill:rgb(100%,100%,100%);fill-opacity:1;stroke-width:1;stroke-linecap:round;stroke-linejoin:miter;stroke:rgb(74.509804%,74.509804%,74.509804%);stroke-opacity:1;stroke-miterlimit:10;" d="M 251.453125 228 L 251.453125 255 L 274.835938 241.5 L 274.835938 214.5 Z M 251.453125 228 L 228.070312 214.5 L 228.070312 241.5 L 251.453125 255 Z M 251.453125 228 L 274.835938 214.5 L 251.453125 201 L 228.070312 214.5 "/>
<path style="fill-rule:evenodd;fill:rgb(100%,100%,100%);fill-opacity:1;stroke-width:1;stroke-linecap:round;stroke-linejoin:miter;stroke:rgb(74.509804%,74.509804%,74.509804%);stroke-opacity:1;stroke-miterlimit:10;" d="M 251.453125 228 L 266.175781 236.5 L 266.175781 219.5 L 251.453125 211 Z M 251.453125 228 L 236.730469 236.5 L 251.453125 245 L 266.175781 236.5 Z M 251.453125 228 L 251.453125 211 L 236.730469 219.5 L 236.730469 236.5 "/>
<path style="fill-rule:evenodd;fill:rgb(100%,100%,100%);fill-opacity:1;stroke-width:1;stroke-linecap:round;stroke-linejoin:miter;stroke:rgb(74.509804%,74.509804%,74.509804%);stroke-opacity:1;stroke-miterlimit:10;" d="M 251.453125 228 L 251.453125 238 L 260.113281 233 L 260.113281 223 Z M 251.453125 228 L 242.792969 223 L 242.792969 233 L 251.453125 238 Z M 251.453125 228 L 260.113281 223 L 251.453125 218 L 242.792969 223 "/>
<path style="fill-rule:evenodd;fill:rgb(100%,100%,100%);fill-opacity:1;stroke-width:1;stroke-linecap:round;stroke-linejoin:miter;stroke:rgb(74.509804%,74.509804%,74.509804%);stroke-opacity:1;stroke-miterlimit:10;" d="M 350.179688 228 L 350.179688 285 L 399.542969 256.5 L 399.542969 199.5 Z M 350.179688 228 L 300.816406 199.5 L 300.816406 256.5 L 350.179688 285 Z M 350.179688 228 L 399.542969 199.5 L 350.179688 171 L 300.816406 199.5 "/>
<path style="fill-rule:evenodd;fill:rgb(100%,100%,100%);fill-opacity:1;stroke-width:1;stroke-linecap:round;stroke-linejoin:miter;stroke:rgb(74.509804%,74.509804%,74.509804%);stroke-opacity:1;stroke-miterlimit:10;" d="M 350.179688 228 L 377.027344 243.5 L 377.027344 212.5 L 350.179688 197 Z M 350.179688 228 L 323.332031 243.5 L 350.179688 259 L 377.027344 243.5 Z M 350.179688 228 L 350.179688 197 L 323.332031 212.5 L 323.332031 243.5 "/>
<path style="fill-rule:evenodd;fill:rgb(100%,100%,100%);fill-opacity:1;stroke-width:1;stroke-linecap:round;stroke-linejoin:miter;stroke:rgb(74.509804%,74.509804%,74.509804%);stroke-opacity:1;stroke-miterlimit:10;" d="M 350.179688 228 L 350.179688 248 L 367.5 238 L 367.5 218 Z M 350.179688 228 L 332.859375 218 L 332.859375 238 L 350.179688 248 Z M 350.179688 228 L 367.5 218 L 350.179688 208 L 332.859375 218 "/>
<path style="fill-rule:evenodd;fill:rgb(100%,100%,100%);fill-opacity:1;stroke-width:1;stroke-linecap:round;stroke-linejoin:miter;stroke:rgb(74.509804%,74.509804%,74.509804%);stroke-opacity:1;stroke-miterlimit:10;" d="M 350.179688 228 L 358.839844 233 L 358.839844 223 L 350.179688 218 Z M 350.179688 228 L 341.519531 233 L 350.179688 238 L 358.839844 233 Z M 350.179688 228 L 350.179688 218 L 341.519531 223 L 341.519531 233 "/>
</g>
</svg>
